<svg width="48" height="48" viewBox="0 0 48 48" fill="none" xmlns="http://www.w3.org/2000/svg">
<rect x="48" y="48" width="48" height="48" rx="4" transform="rotate(-180 48 48)" fill="#B98B5F"/>
<path d="M20.3223 29.6447C20.1298 29.2597 20.2053 28.7947 20.5097 28.4903L24.2929 24.7071C24.6834 24.3166 24.6834 23.6834 24.2929 23.2929L20.5097 19.5097C20.2053 19.2053 20.1298 18.7403 20.3223 18.3553L20.3795 18.241C20.6848 17.6305 21.4984 17.4984 21.9811 17.9811L27.2929 23.2929C27.6834 23.6834 27.6834 24.3166 27.2929 24.7071L21.9811 30.0189C21.4984 30.5016 20.6848 30.3695 20.3795 29.759L20.3223 29.6447Z" fill="white"/>
</svg>
