<svg width="16" height="16" viewBox="0 0 16 16" fill="none" xmlns="http://www.w3.org/2000/svg">
<path d="M8.55073 2.95408C8.48957 2.86525 8.40773 2.79262 8.31227 2.74245C8.2168 2.69228 8.11057 2.66606 8.00273 2.66606C7.89488 2.66606 7.78865 2.69228 7.69319 2.74245C7.59772 2.79262 7.51589 2.86525 7.45473 2.95408L1.45473 11.6207C1.38528 11.7207 1.34455 11.8378 1.33697 11.9593C1.32939 12.0808 1.35525 12.202 1.41174 12.3098C1.46822 12.4176 1.55318 12.5079 1.65737 12.5708C1.76156 12.6338 1.88101 12.6669 2.00273 12.6667L14.0027 12.6667C14.1242 12.6662 14.2432 12.6326 14.3469 12.5696C14.4507 12.5065 14.5353 12.4163 14.5917 12.3088C14.648 12.2012 14.674 12.0803 14.6668 11.9591C14.6596 11.8378 14.6194 11.7209 14.5507 11.6207L8.55073 2.95408Z" fill="#913636"/>
</svg>
