<svg width="38" height="38" viewBox="0 0 38 38" fill="none" xmlns="http://www.w3.org/2000/svg">
<path d="M13.089 23.2433C12.7977 23.2433 12.6013 23.2718 12.5 23.3003V25.1655C12.6203 25.194 12.7707 25.2019 12.9782 25.2019C13.7366 25.2019 14.2037 24.8187 14.2037 24.1711C14.2037 23.5916 13.8015 23.2433 13.089 23.2433ZM18.6101 23.2623C18.2934 23.2623 18.0876 23.2908 17.9657 23.3193V27.4518C18.0876 27.4803 18.2839 27.4803 18.4612 27.4803C19.7548 27.4898 20.5972 26.7773 20.5972 25.27C20.6067 23.9558 19.8387 23.2623 18.6101 23.2623Z" fill="#C89354"/>
<path d="M22.1693 3.16663H9.5026C8.66275 3.16663 7.8573 3.50026 7.26343 4.09412C6.66957 4.68799 6.33594 5.49344 6.33594 6.33329V31.6666C6.33594 32.5065 6.66957 33.3119 7.26343 33.9058C7.8573 34.4997 8.66275 34.8333 9.5026 34.8333H28.5026C29.3425 34.8333 30.1479 34.4997 30.7418 33.9058C31.3356 33.3119 31.6693 32.5065 31.6693 31.6666V12.6666L22.1693 3.16663ZM15.0411 25.6341C14.5519 26.0933 13.8299 26.2991 12.9891 26.2991C12.8261 26.3009 12.6631 26.2914 12.5014 26.2706V28.5285H11.0859V22.2965C11.7247 22.2012 12.3702 22.1577 13.016 22.1666C13.8979 22.1666 14.5249 22.3345 14.9477 22.6717C15.3499 22.9915 15.6222 23.5156 15.6222 24.1331C15.6206 24.7538 15.4148 25.2779 15.0411 25.6341ZM21.0689 27.7795C20.4039 28.3321 19.3921 28.595 18.1555 28.595C17.4145 28.595 16.8904 28.5475 16.5342 28.5V22.298C17.1732 22.2048 17.8185 22.1608 18.4643 22.1666C19.6629 22.1666 20.4419 22.382 21.0499 22.8411C21.7069 23.3288 22.1186 24.1062 22.1186 25.2225C22.1186 26.4305 21.6769 27.265 21.0689 27.7795ZM26.9193 23.3858H24.4936V24.8282H26.7609V25.9904H24.4936V28.53H23.0591V22.2141H26.9193V23.3858ZM22.1693 14.25H20.5859V6.33329L28.5026 14.25H22.1693Z" fill="#C89354"/>
</svg>
